<svg xmlns="http://www.w3.org/2000/svg" xmlns:xlink="http://www.w3.org/1999/xlink" width="1056" zoomAndPan="magnify" viewBox="0 0 792 611.999999" height="816" preserveAspectRatio="xMidYMid meet" version="1.0"><defs><clipPath id="39062b60d4"><path d="M 272 182.113281 L 401 182.113281 L 401 430 L 272 430 Z M 272 182.113281 " clip-rule="nonzero"/></clipPath><clipPath id="e885cb28e2"><path d="M 317.566406 328.699219 C 316.558594 327.980469 316.027344 327.648438 315.546875 327.25 C 299.238281 313.546875 302.6875 288.179688 322.085938 279.488281 C 323.605469 278.808594 325.4375 278.339844 327.046875 278.5 C 328.195312 278.609375 329.738281 279.75 330.15625 280.796875 C 330.566406 281.839844 330.207031 283.71875 329.445312 284.570312 C 328.246094 285.910156 326.488281 286.820312 324.855469 287.707031 C 319.097656 290.847656 315.648438 295.558594 314.71875 302.089844 C 313.246094 312.410156 320.335938 325.910156 335.605469 322.480469 C 337.535156 322.046875 339.285156 320.828125 341.125 320 C 343.546875 318.910156 345.777344 319.296875 347.066406 321.019531 C 348.578125 323.027344 348.335938 325.339844 346.277344 327.347656 C 345.507812 328.097656 344.546875 328.679688 343.605469 329.25 C 339.867188 331.5 335.765625 332.4375 331.445312 332.117188 C 328.816406 331.917969 326.6875 332.480469 324.546875 334.148438 C 320.417969 337.378906 315.535156 339.238281 310.417969 340.160156 C 307.558594 340.679688 304.566406 340.5 301.457031 340.636719 C 301.328125 345.230469 302.496094 349.21875 304.328125 353.046875 C 308.636719 362.070312 318.945312 367.097656 328.1875 364.078125 C 334.855469 361.898438 340.835938 358.867188 345.015625 352.898438 C 347.445312 349.429688 350.226562 349.359375 353.226562 352.347656 C 354.117188 353.226562 354.988281 354.136719 355.835938 355.058594 C 359.90625 359.429688 364.886719 360.289062 370.457031 358.886719 C 371.066406 358.738281 371.65625 358.527344 372.277344 358.417969 C 375.507812 357.820312 377.457031 358.570312 378.265625 360.6875 C 379.097656 362.867188 377.765625 365.117188 374.746094 366.488281 C 373.757812 366.9375 372.714844 367.378906 371.648438 367.578125 C 365.257812 368.796875 359.167969 368.109375 353.617188 364.449219 C 352.105469 363.449219 350.617188 362.410156 348.917969 361.238281 C 345.214844 367.828125 338.875 369.789062 332.695312 371.539062 C 331.027344 386.839844 343.195312 399.816406 356.40625 397.296875 C 357.457031 394.667969 358.417969 392.019531 359.566406 389.449219 C 360.136719 388.1875 360.898438 386.949219 361.808594 385.910156 C 363.347656 384.148438 365.425781 384.058594 367.40625 384.949219 C 369.527344 385.898438 369.566406 387.917969 369.175781 389.820312 C 368.925781 391.007812 368.226562 392.109375 367.714844 393.25 C 365.027344 399.21875 365.175781 405.109375 368.417969 410.816406 C 372.828125 418.597656 381.066406 421.898438 391.105469 419.957031 L 391.105469 384.789062 C 388.304688 385.628906 385.707031 386.867188 383.816406 384.367188 C 381.808594 381.707031 383.488281 379.347656 385.035156 377.109375 C 385.214844 376.847656 385.367188 376.570312 385.535156 376.308594 C 388.707031 371.507812 390.714844 366.308594 390.867188 360.507812 C 391.054688 353.457031 391.167969 346.410156 391.246094 339.347656 C 391.257812 338.867188 390.804688 338.386719 390.488281 337.707031 C 389.167969 338.859375 388.175781 339.867188 387.027344 340.667969 C 385.027344 342.078125 382.355469 341.9375 380.976562 340.507812 C 379.386719 338.859375 379.367188 336.808594 380.996094 334.539062 C 381.546875 333.777344 382.195312 333.089844 382.847656 332.410156 C 397.347656 317.027344 393.015625 287.910156 371.355469 278.019531 C 367.238281 276.140625 363.007812 274.449219 358.976562 272.390625 C 349.226562 267.410156 342.875 259.6875 340.535156 248.839844 C 340.175781 247.179688 339.507812 245.546875 338.746094 244.019531 C 335.855469 238.199219 331.578125 233.867188 325.398438 231.4375 C 322.597656 230.328125 321.785156 228.089844 322.765625 225.820312 C 323.765625 223.5 325.996094 222.339844 328.535156 223.269531 C 330.707031 224.058594 332.828125 225.167969 334.746094 226.46875 C 337.417969 228.269531 339.867188 230.390625 342.605469 232.519531 C 343.898438 230.417969 344.738281 228.519531 346.035156 227.007812 C 349.695312 222.75 353.335938 218.4375 357.375 214.558594 C 360.417969 211.640625 363.546875 211.699219 365.226562 213.859375 C 366.90625 216.019531 366.238281 218.058594 363.035156 221.050781 C 360.296875 223.609375 357.355469 226.050781 355.035156 228.957031 C 345.4375 240.988281 349.464844 258.46875 363.265625 265.167969 C 365.796875 266.398438 368.417969 267.449219 371.035156 268.480469 C 377.886719 271.179688 383.714844 275.257812 388.328125 281.027344 C 389.054688 281.949219 389.886719 282.789062 391.117188 284.167969 L 391.117188 244.589844 C 386.988281 247.160156 383.285156 249.71875 379.335938 251.820312 C 375.488281 253.867188 372.328125 253.140625 371.136719 250.449219 C 369.867188 247.570312 371.265625 245.367188 375.546875 243.558594 C 381.085938 241.230469 385.476562 237.558594 388.167969 232.148438 C 392.957031 222.5 392.554688 212.929688 386.367188 204.128906 C 379.605469 194.519531 369.816406 190.410156 358.246094 191.277344 C 349.207031 191.957031 341.875 196.359375 336.457031 203.667969 C 335.097656 205.507812 333.617188 206.449219 331.316406 206.089844 C 330.238281 205.917969 329.125 206.039062 328.027344 205.957031 C 316.195312 205.128906 304.207031 213.878906 302.617188 228.558594 C 301.507812 238.878906 306.726562 250.277344 318.636719 253.679688 C 319.6875 253.980469 320.71875 254.347656 321.726562 254.757812 C 323.707031 255.558594 324.746094 257.027344 324.355469 259.179688 C 323.925781 261.539062 322.257812 262.699219 319.96875 262.589844 C 317.957031 262.488281 315.90625 262.167969 313.988281 261.589844 C 309.167969 260.117188 305.476562 256.847656 302.425781 253.058594 C 299.558594 249.488281 297.265625 245.449219 294.636719 241.488281 C 294.1875 241.890625 293.605469 242.390625 293.046875 242.910156 C 283.496094 251.828125 280.386719 265.339844 289.777344 276.988281 C 292.898438 280.859375 292.757812 282.339844 288.746094 286.269531 C 276.828125 297.949219 279.945312 318.21875 293.695312 327.648438 C 300.957031 332.617188 308.675781 333.609375 317.515625 328.699219 M 356.375 406.449219 C 346.816406 407.078125 339.015625 403.679688 332.457031 397.207031 C 325.976562 390.820312 323.007812 382.976562 323.207031 374.578125 C 318.4375 373.179688 313.785156 372.597656 309.925781 370.539062 C 298.527344 364.449219 292.226562 354.878906 292.757812 341.597656 C 292.875 338.71875 291.976562 337.179688 289.558594 335.609375 C 275.875 326.75 269.417969 309.707031 273.835938 294.1875 C 274.71875 291.078125 276.457031 288.207031 277.9375 285.296875 C 278.707031 283.777344 279.777344 282.417969 280.566406 281.199219 C 278.976562 277.628906 277.148438 274.480469 276.136719 271.089844 C 271.808594 256.667969 279.175781 242.359375 289.515625 234.597656 C 292.425781 232.410156 293.617188 230.300781 293.917969 226.597656 C 294.9375 214.1875 301.71875 205.417969 312.667969 199.808594 C 317.636719 197.257812 322.957031 196.007812 328.566406 196.527344 C 330.597656 196.71875 332.046875 196.339844 333.457031 194.648438 C 345.085938 180.730469 367.046875 178.148438 383.148438 188.257812 C 393.988281 195.070312 399.964844 204.808594 400.386719 217.75 C 400.488281 220.878906 400.578125 224.019531 400.578125 227.148438 C 400.597656 290.179688 400.605469 353.207031 400.605469 416.238281 C 400.605469 417.648438 400.546875 419.058594 400.398438 420.457031 C 399.835938 425.378906 397.535156 428.128906 392.636719 429.167969 C 378.847656 432.117188 362.398438 425.636719 357.136719 409.339844 C 356.898438 408.597656 356.765625 407.816406 356.4375 406.4375 " clip-rule="nonzero"/></clipPath><clipPath id="9ad68e4e23"><path d="M 410.085938 182.113281 L 538.707031 182.113281 L 538.707031 429.386719 L 410.085938 429.386719 Z M 410.085938 182.113281 " clip-rule="nonzero"/></clipPath><clipPath id="a3c694327e"><path d="M 419.945312 411.757812 C 421.15625 410.757812 421.925781 410.269531 422.515625 409.617188 C 444.488281 385.546875 466.597656 361.609375 488.328125 337.328125 C 500.996094 323.160156 511.894531 307.648438 520.027344 290.359375 C 526.367188 276.878906 530.515625 262.957031 529.15625 247.75 C 527.40625 228.238281 519.4375 212.367188 503.007812 201.160156 C 493.566406 194.730469 483.175781 190.917969 471.757812 191.179688 C 458.6875 191.480469 446.886719 195.9375 436.917969 204.507812 C 425.988281 213.917969 419.726562 225.328125 419.828125 240.4375 C 420.167969 295.617188 419.957031 350.796875 419.957031 405.976562 Z M 410.648438 328.1875 C 410.648438 298.707031 410.867188 269.230469 410.535156 239.75 C 410.40625 228.589844 413.398438 218.839844 419.828125 209.878906 C 433.386719 190.949219 451.945312 181.449219 475.007812 182.609375 C 500.527344 183.898438 519.097656 197.039062 531.195312 219.4375 C 535.675781 227.730469 537.554688 236.730469 538.375 245.988281 C 539.796875 262.140625 536.527344 277.457031 529.734375 292.070312 C 520.945312 310.96875 509.234375 328.039062 495.425781 343.507812 C 473.304688 368.289062 450.605469 392.558594 428.148438 417.039062 C 425.078125 420.386719 421.925781 423.667969 418.835938 427 C 417.398438 428.558594 415.847656 429.929688 413.535156 429.078125 C 411.054688 428.167969 410.675781 426 410.65625 423.699219 C 410.648438 421.96875 410.636719 420.25 410.636719 418.519531 C 410.636719 388.410156 410.636719 358.308594 410.636719 328.199219 Z M 410.648438 328.1875 " clip-rule="nonzero"/></clipPath><clipPath id="f5de94866d"><path d="M 349.265625 301 L 369 301 L 369 337 L 349.265625 337 Z M 349.265625 301 " clip-rule="nonzero"/></clipPath><clipPath id="9e83458e81"><path d="M 368.714844 323.9375 C 367.976562 326.949219 367.464844 330.046875 366.445312 332.957031 C 365.296875 336.230469 362.808594 337.527344 360.347656 336.648438 C 357.847656 335.757812 357.148438 333.359375 358.046875 329.898438 C 358.785156 327.046875 359.535156 324.128906 359.675781 321.207031 C 359.90625 316.417969 357.695312 312.769531 353.367188 310.527344 C 352.675781 310.167969 351.898438 309.949219 351.265625 309.5 C 349.527344 308.257812 349.015625 306.488281 349.625 304.519531 C 350.195312 302.6875 351.625 301.777344 353.515625 301.628906 C 356.058594 301.417969 358.066406 302.570312 359.867188 304.1875 C 365.695312 309.429688 368.417969 316.007812 368.726562 323.9375 " clip-rule="nonzero"/></clipPath></defs><g clip-path="url(#39062b60d4)"><g clip-path="url(#e885cb28e2)"><path fill="#ffffff" d="M 267.507812 177.128906 L 543.695312 177.128906 L 543.695312 434.371094 L 267.507812 434.371094 Z M 267.507812 177.128906 " fill-opacity="1" fill-rule="nonzero"/></g></g><g clip-path="url(#9ad68e4e23)"><g clip-path="url(#a3c694327e)"><path fill="#ffffff" d="M 267.507812 177.128906 L 543.695312 177.128906 L 543.695312 434.371094 L 267.507812 434.371094 Z M 267.507812 177.128906 " fill-opacity="1" fill-rule="nonzero"/></g></g><g clip-path="url(#f5de94866d)"><g clip-path="url(#9e83458e81)"><path fill="#ffffff" d="M 267.507812 177.128906 L 543.695312 177.128906 L 543.695312 434.371094 L 267.507812 434.371094 Z M 267.507812 177.128906 " fill-opacity="1" fill-rule="nonzero"/></g></g></svg>